<?xml version="1.0" encoding="UTF-8" standalone="no"?>
<!-- Created with Inkscape (http://www.inkscape.org/) -->

<svg
   width="118.50557mm"
   height="118.50557mm"
   viewBox="0 0 118.50557 118.50557"
   version="1.1"
   id="svg1"
   xmlns="http://www.w3.org/2000/svg"
   xmlns:svg="http://www.w3.org/2000/svg">
  <defs
     id="defs1" />
  <g
     id="layer1"
     transform="translate(-45.747215,-89.247215)">
    <g
       id="g1"
       transform="translate(-28.817856,81.150566)">
      <circle
         style="fill:#001d4f;fill-opacity:1;stroke-width:0.264583"
         id="path1"
         cx="133.81786"
         cy="67.349434"
         r="59.252785" />
      <path
         d="m 156.73117,78.18586 v 12.872645 q -6.50654,3.510721 -11.09388,4.774581 -4.54054,1.310669 -9.83002,1.310669 -7.34911,0 -13.6216,-2.200052 -4.91501,-1.685146 -7.7704,-4.259675 -2.80857,-2.574529 -5.19586,-7.583158 -2.3873,-5.055439 -2.3873,-11.281118 v -6.927823 q 0,-9.595972 5.85121,-17.13232 7.86401,-10.204497 21.39199,-10.204497 3.93201,0 7.44273,0.795764 3.55753,0.795763 6.74059,2.38729 1.91919,-1.731956 3.74477,-1.731956 2.10643,0 3.4171,1.451099 1.31067,1.451098 1.31067,4.915009 v 6.22568 q 0,3.463911 -1.35748,4.961819 -1.31067,1.451098 -3.4171,1.451098 -1.68515,0 -2.9022,-1.029811 -0.93619,-0.702145 -1.59153,-3.089435 -0.60852,-2.4341 -1.40429,-3.276673 -1.26386,-1.357479 -4.49372,-2.387291 -3.18305,-1.076621 -7.16187,-1.076621 -5.71077,0 -9.92364,2.340481 -2.99581,1.731956 -5.52353,6.03844 -2.52772,4.306485 -2.52772,9.361924 v 6.927823 q 0,7.723587 4.44691,11.749214 4.49372,3.978818 14.23012,3.978818 6.60016,0 12.03008,-2.48091 V 78.18586 h -9.78321 q -3.46392,0 -4.96182,-1.310669 -1.4511,-1.357479 -1.4511,-3.510721 0,-2.153243 1.4511,-3.463912 1.4979,-1.357479 4.96182,-1.357479 l 17.0387,0.04681 q 3.46391,0 4.91501,1.310669 1.4979,1.310669 1.4979,3.463912 0,1.685146 -1.02981,2.949006 -0.983,1.263859 -3.04262,1.872384 z"
         id="text1"
         style="font-weight:bold;font-size:95.8661px;font-family:'Courier New';-inkscape-font-specification:'Courier New, Bold';fill:#5a76ff;stroke-width:7.98883"
         aria-label="G" />
    </g>
  </g>
</svg>
